<svg id="Layer_1" data-name="Layer 1" xmlns="http://www.w3.org/2000/svg" viewBox="0 0 512 512"><defs><style>.cls-1{fill:#f9704b;}.cls-2{fill:#e5decf;}.cls-3{fill:#f7b24d;}.cls-4{fill:#ffecd4;}.cls-5{opacity:0.1;}.cls-6{fill:#231f20;}.cls-7{fill:#c1b6a3;}</style></defs><title>candle-flat</title><path class="cls-1" d="M326.4,134.21a70.4,70.4,0,1,1-140.8,0C185.6,95.17,256,0,256,0S326.4,95.17,326.4,134.21Z"/><rect class="cls-2" x="160" y="243.2" width="192" height="268.8" rx="19.2" ry="19.2"/><path class="cls-3" d="M305.24,156.25a48.84,48.84,0,0,1-97.68,0C207.56,129.43,256.4,64,256.4,64S305.24,129.43,305.24,156.25Z"/><path class="cls-4" d="M278.6,182.73a22.2,22.2,0,0,1-44.4,0c0-12.19,22.2-41.93,22.2-41.93S278.6,170.54,278.6,182.73Z"/><g class="cls-5"><path class="cls-6" d="M256,204.8V0s70.4,95.17,70.4,134.21A70.48,70.48,0,0,1,256,204.8Z"/></g><g class="cls-5"><path class="cls-6" d="M352,262.4V492.8A19.17,19.17,0,0,1,332.8,512H256V243.2h76.8A19.17,19.17,0,0,1,352,262.4Z"/></g><rect class="cls-7" x="108.8" y="473.6" width="294.4" height="38.4"/><path class="cls-7" d="M256,204.8a70.26,70.26,0,0,1-19.2-2.68V243.2h38.4V202.12A70.26,70.26,0,0,1,256,204.8Z"/></svg>